[Header]
FileType HTR
DataType HTRS
FileVersion 1
NumSegments 48
NumFrames 3
DataFrameRate 30
EulerRotationOrder ZYX
CalibrationUnits mm
RotationUnits Degrees
GlobalAxisofGravity Y
BoneLengthAxis Y
ScaleFactor 1.0
[SegmentNames&Hierarchy]
Wolf	GLOBAL
Becken	Wolf
Bauch	Becken
Bauch_001	Bauch
Brust	Bauch_001
Hals	Brust
Kopf_002	Hals
Kopf	Kopf_002
Unterkiefer	Kopf
Hals_fett	Unterkiefer
Maulunten	Unterkiefer
Mauloben	Kopf
MundW_L	Kopf
MundW_R	Kopf
Augen_con	Kopf
IK_Aug_R	Augen_con
IK_Aug_L	Augen_con
Aug_R	Kopf
aug_L	Kopf
Ohr_L	Kopf
Ohr_R	Kopf
Braun_O_L	Kopf
Braun_O_R	Kopf
aug_lied_O_L	Kopf
aug_lied_O_R	Kopf
aug_lied_U_L	Kopf
aug_lied_U_R	Kopf
Bauch_003	Brust
Schalterplatte_L	Bauch_003
Oberarm_L	Schalterplatte_L
Unterarm_L	Oberarm_L
Vorderpfote_L	Unterarm_L
Schalterplatte_R	Bauch_003
Oberarm_R	Schalterplatte_R
Unterarm_R	Oberarm_R
Vorderpfote_R	Unterarm_R
Schwanz	Becken
Schwanz_001	Schwanz
Schwanz_002	Schwanz_001
Schwanz_003	Schwanz_002
Oberschenkel_L	Becken
Unterschenkel_L	Oberschenkel_L
Pfote1_L	Unterschenkel_L
Pfote2_L	Pfote1_L
Oberschenkel_R	Becken
Unterschenkel_R	Oberschenkel_R
Pfote1_R	Unterschenkel_R
Pfote2_R	Pfote1_R
[BasePosition]
Wolf	0	0	0	0	0	0	1
Becken	0	0	0	0	0	0	1
Bauch	0	0	0	0	0	0	1
Bauch_001	0	0	0	0	0	0	1
Brust	0	0	0	0	0	0	1
Hals	0	0	0	0	0	0	1
Kopf_002	0	0	0	0	0	0	1
Kopf	0	0	0	0	0	0	1
Unterkiefer	0	0	0	0	0	0	1
Hals_fett	0	0	0	0	0	0	1
Maulunten	0	0	0	0	0	0	1
Mauloben	0	0	0	0	0	0	1
MundW_L	0	0	0	0	0	0	1
MundW_R	0	0	0	0	0	0	1
Augen_con	0	0	0	0	0	0	1
IK_Aug_R	0	0	0	0	0	0	1
IK_Aug_L	0	0	0	0	0	0	1
Aug_R	0	0	0	0	0	0	1
aug_L	0	0	0	0	0	0	1
Ohr_L	0	0	0	0	0	0	1
Ohr_R	0	0	0	0	0	0	1
Braun_O_L	0	0	0	0	0	0	1
Braun_O_R	0	0	0	0	0	0	1
aug_lied_O_L	0	0	0	0	0	0	1
aug_lied_O_R	0	0	0	0	0	0	1
aug_lied_U_L	0	0	0	0	0	0	1
aug_lied_U_R	0	0	0	0	0	0	1
Bauch_003	0	0	0	0	0	0	1
Schalterplatte_L	0	0	0	0	0	0	1
Oberarm_L	0	0	0	0	0	0	1
Unterarm_L	0	0	0	0	0	0	1
Vorderpfote_L	0	0	0	0	0	0	1
Schalterplatte_R	0	0	0	0	0	0	1
Oberarm_R	0	0	0	0	0	0	1
Unterarm_R	0	0	0	0	0	0	1
Vorderpfote_R	0	0	0	0	0	0	1
Schwanz	0	0	0	0	0	0	1
Schwanz_001	0	0	0	0	0	0	1
Schwanz_002	0	0	0	0	0	0	1
Schwanz_003	0	0	0	0	0	0	1
Oberschenkel_L	0	0	0	0	0	0	1
Unterschenkel_L	0	0	0	0	0	0	1
Pfote1_L	0	0	0	0	0	0	1
Pfote2_L	0	0	0	0	0	0	1
Oberschenkel_R	0	0	0	0	0	0	1
Unterschenkel_R	0	0	0	0	0	0	1
Pfote1_R	0	0	0	0	0	0	1
Pfote2_R	0	0	0	0	0	0	1
[Wolf]
10	0	0	0	-90	-0	0	1.0
11	0	0	0	-90	-0	0	1.0
12	0	0	0	-90	-0	0	1.0
[Becken]
10	0	0.5621799231	0.5220261216	-0.8823812604	169.379837	89.68276215	1.0
11	0	0.5621799231	0.5327301025	-0.6440655589	169.3786774	89.76844025	1.0
12	0	0.5621799231	0.5393141508	-0.3904024065	169.3779144	89.85964203	1.0
[Bauch]
10	0.9404072165	7.335228958e-08	-0.3559131622	-9.70548399e-07	12.60522652	-8.885302805e-08	1.0
11	0.9404072165	7.335228958e-08	-0.3559131622	-9.70548399e-07	12.60522652	-8.885302805e-08	1.0
12	0.9404072165	7.335228958e-08	-0.3559131622	-9.70548399e-07	12.60522652	-8.885302805e-08	1.0
[Bauch_001]
10	1.081897616	8.323696221e-08	1.180524034e-08	-2.503413032e-09	2.360082865	-2.670307531e-08	1.0
11	1.081897616	8.323696221e-08	1.180524034e-08	-2.503413032e-09	2.360082865	-2.670307531e-08	1.0
12	1.081897616	8.323696221e-08	1.180524034e-08	-2.503413032e-09	2.360082865	-2.670307531e-08	1.0
[Brust]
10	1.069831252	8.440110832e-08	3.139576066e-08	5.110827715e-06	14.88452721	-3.549572648e-05	1.0
11	1.069831252	8.440110832e-08	3.139576066e-08	5.110827715e-06	15.31842041	-3.549572648e-05	1.0
12	1.069831252	8.440110832e-08	3.139576066e-08	5.110827715e-06	15.58524132	-3.549572648e-05	1.0
[Hals]
10	1.258022308	9.662471712e-08	0.6079561114	-4.810633527e-06	46.87745667	-2.341890877e-06	1.0
11	1.258022308	9.662471712e-08	0.6079561114	-4.810633527e-06	46.87745667	-2.341890877e-06	1.0
12	1.258022308	9.662471712e-08	0.6079561114	-4.810633527e-06	46.87745667	-2.341890877e-06	1.0
[Kopf_002]
10	1.752595186	3.012712114e-05	0.265181601	0.006653386634	-165.1497192	0.002557684667	1.0
11	1.752595186	3.012712114e-05	0.265181601	0.006653386634	-165.1497192	0.002557684667	1.0
12	1.752595186	3.012712114e-05	0.265181601	0.006653386634	-165.1497192	0.002557684667	1.0
[Kopf]
10	1.015782118	6.868503988e-08	-5.515175872e-08	0.0598610118	114.9836197	-0.03381384909	1.0
11	1.015782118	6.868503988e-08	-5.515175872e-08	0.05861826986	114.1160812	-0.03494320437	1.0
12	1.015782118	6.868503988e-08	-5.515175872e-08	0.05780086666	113.5828018	-0.03569125757	1.0
[Unterkiefer]
10	0.6370447874	0.004552732222	0.4060618579	5.412721634	-68.3888092	-3.093543291	1.0
11	0.6370447874	0.004552732222	0.4060618579	5.412721634	-68.3888092	-3.093543291	1.0
12	0.6370447874	0.004552732222	0.4060618579	5.412721634	-68.3888092	-3.093543291	1.0
[Hals_fett]
10	0.2998305857	0.007747137919	0.1206372604	-5.071650982	-59.35961151	5.585564613	1.0
11	0.2998305857	0.007747137919	0.1206372604	-5.071650982	-59.35961151	5.585564613	1.0
12	0.2998305857	0.007747137919	0.1206372604	-5.071650982	-59.35961151	5.585564613	1.0
[Maulunten]
10	0.0831861794	-0.007747565862	-0.1206544712	-3.322209358	38.97271347	-0.8718761206	1.0
11	0.0831861794	-0.007747565862	-0.1206544712	-3.322209358	38.97271347	-0.8718761206	1.0
12	0.0831861794	-0.007747565862	-0.1206544712	-3.322209358	38.97271347	-0.8718761206	1.0
[Mauloben]
10	0.9101490974	0.0004056713078	0.4003697634	-0.1032672822	-28.7776947	0.03543138877	1.0
11	0.9101490974	0.0004056713078	0.4003697634	-0.1032672822	-28.7776947	0.03543138877	1.0
12	0.9101490974	0.0004056713078	0.4003697634	-0.1032672822	-28.7776947	0.03543138877	1.0
[MundW_L]
10	0.673060894	-0.3618555963	0.3751283586	-179.8370972	-17.94885063	24.713974	1.0
11	0.673060894	-0.3618555963	0.3751283586	-179.8370972	-17.94885063	24.713974	1.0
12	0.673060894	-0.3618555963	0.3751283586	-179.8370972	-17.94885063	24.713974	1.0
[MundW_R]
10	0.6732419133	0.3627035022	0.3739836514	179.665329	-18.02427101	-24.69083595	1.0
11	0.6732419133	0.3627035022	0.3739836514	179.665329	-18.02427101	-24.69083595	1.0
12	0.6732419133	0.3627035022	0.3739836514	179.665329	-18.02427101	-24.69083595	1.0
[Augen_con]
10	1.807373166	-0.0001604110003	0.183581531	0.0982221961	157.1545258	0.02385941334	1.0
11	1.807373166	-0.0001604110003	0.183581531	0.0982221961	157.1545258	0.02385941334	1.0
12	1.807373166	-0.0001604110003	0.183581531	0.0982221961	157.1545258	0.02385941334	1.0
[IK_Aug_R]
10	0.3461295962	0.2943200469	-1.071020961e-07	-0.4194760025	-4.963055134	165.6946411	1.0
11	0.3461295962	0.2943200469	-1.071020961e-07	-0.4194760025	-4.963055134	165.6946411	1.0
12	0.3461295962	0.2943200469	-1.071020961e-07	-0.4194760025	-4.963055134	165.6946411	1.0
[IK_Aug_L]
10	0.3461301029	-0.2943200171	-1.967418939e-07	0.4194771945	-4.963055134	-165.6946411	1.0
11	0.3461301029	-0.2943200171	-1.967418939e-07	0.4194771945	-4.963055134	-165.6946411	1.0
12	0.3461301029	-0.2943200171	-1.967418939e-07	0.4194771945	-4.963055134	-165.6946411	1.0
[Aug_R]
10	1.035154939	0.2207805216	-0.09605780989	176.004776	-17.29167175	12.85548782	1.0
11	1.035154939	0.2207805216	-0.09605780989	176.004776	-17.29167175	12.85548782	1.0
12	1.035154939	0.2207805216	-0.09605780989	176.004776	-17.29167175	12.85548782	1.0
[aug_L]
10	1.03504467	-0.2215988934	-0.09535907209	-176.1891022	-17.33180046	-12.83102131	1.0
11	1.03504467	-0.2215988934	-0.09535907209	-176.1891022	-17.33180046	-12.83102131	1.0
12	1.03504467	-0.2215988934	-0.09535907209	-176.1891022	-17.33180046	-12.83102131	1.0
[Ohr_L]
10	0.6407766938	-0.3659991026	-0.6893324852	-24.34923935	53.07765961	-15.02013397	1.0
11	0.6407766938	-0.3659991026	-0.6893324852	-24.34923935	53.07765961	-15.02013397	1.0
12	0.6407766938	-0.3659991026	-0.6893324852	-24.34923935	53.07765961	-15.02013397	1.0
[Ohr_R]
10	0.640958488	0.36349985	-0.690484941	24.05785561	53.12415695	14.75856686	1.0
11	0.640958488	0.36349985	-0.690484941	24.05785561	53.12415695	14.75856686	1.0
12	0.640958488	0.36349985	-0.690484941	24.05785561	53.12415695	14.75856686	1.0
[Braun_O_L]
10	0.9801894426	-0.3706049323	-0.3292509615	-143.317215	-34.69636154	52.39493942	1.0
11	0.9801894426	-0.3706049323	-0.3292509615	-143.317215	-34.69636154	52.39493942	1.0
12	0.9801894426	-0.3706049323	-0.3292509615	-143.317215	-34.69636154	52.39493942	1.0
[Braun_O_R]
10	0.9803640842	0.3690741956	-0.3304226995	143.1826782	-34.83971405	-52.34676361	1.0
11	0.9803640842	0.3690741956	-0.3304226995	143.1826782	-34.83971405	-52.34676361	1.0
12	0.9803640842	0.3690741956	-0.3304226995	143.1826782	-34.83971405	-52.34676361	1.0
[aug_lied_O_L]
10	1.038882375	-0.3271433413	-0.1608109176	-175.8613434	-20.15596771	60.31667709	1.0
11	1.038882375	-0.3271433413	-0.1608109176	-175.8613434	-20.15596771	60.31667709	1.0
12	1.038882375	-0.3271433413	-0.1608109176	-175.8613434	-20.15596771	60.31667709	1.0
[aug_lied_O_R]
10	1.039044976	0.326115787	-0.1618431658	175.7657928	-20.31324005	-60.31218338	1.0
11	1.039044976	0.326115787	-0.1618431658	175.7657928	-20.31324005	-60.31218338	1.0
12	1.039044976	0.326115787	-0.1618431658	175.7657928	-20.31324005	-60.31218338	1.0
[aug_lied_U_L]
10	1.02191329	-0.3312865198	-0.1338392347	-159.8099365	-28.7482872	60.17462158	1.0
11	1.02191329	-0.3312865198	-0.1338392347	-159.8099365	-28.7482872	60.17462158	1.0
12	1.02191329	-0.3312865198	-0.1338392347	-159.8099365	-28.7482872	60.17462158	1.0
[aug_lied_U_R]
10	1.022078872	0.3303525448	-0.1348842829	159.7071381	-28.90532303	-60.15359116	1.0
11	1.022078872	0.3303525448	-0.1348842829	159.7071381	-28.90532303	-60.15359116	1.0
12	1.022078872	0.3303525448	-0.1348842829	159.7071381	-28.90532303	-60.15359116	1.0
[Bauch_003]
10	1.276869178	9.429641068e-08	-0.6079563498	-3.842957085e-06	-137.6799469	1.008550771e-05	1.0
11	1.276869178	9.429641068e-08	-0.6079563498	-3.842957085e-06	-137.6799469	1.008550771e-05	1.0
12	1.276869178	9.429641068e-08	-0.6079563498	-3.842957085e-06	-137.6799469	1.008550771e-05	1.0
[Schalterplatte_L]
10	0.9151558876	-0.382711947	-0.0371253863	-8.983092308	71.92168427	-36.3241272	1.0
11	0.9059782028	-0.3831166029	-0.02507127076	-5.647506714	70.56864166	-32.86504364	1.0
12	0.8995136619	-0.3835212886	-0.01481833495	-3.35605216	69.47387695	-30.44304657	1.0
[Oberarm_L]
10	1.418636799	1.443549991e-07	9.778887033e-08	-47.15163422	-55.58061981	55.25167847	1.0
11	1.418636799	1.443549991e-07	9.778887033e-08	-47.41532135	-55.7457695	55.56377411	1.0
12	1.418636799	1.443549991e-07	9.778887033e-08	-47.73089218	-55.95366287	55.96411514	1.0
[Unterarm_L]
10	2.028227329	8.847563748e-08	-3.725290298e-07	0.3939970732	42.03515244	0.2101546824	1.0
11	2.028227329	8.847563748e-08	-3.725290298e-07	0.3856035471	40.79208374	0.2069011331	1.0
12	2.028227329	8.847563748e-08	-3.725290298e-07	0.4065570533	39.85115814	0.2397359312	1.0
[Vorderpfote_L]
10	1.705947638	1.746229827e-07	-5.704351125e-08	-3.632472038	76.30463409	-2.607290506	1.0
11	1.705947638	1.746229827e-07	-5.704351125e-08	-4.252780914	78.2843399	-3.251387596	1.0
12	1.705947638	1.746229827e-07	-5.704351125e-08	-4.733167648	79.45039368	-3.745074749	1.0
[Schalterplatte_R]
10	0.9266975522	0.3877360821	0.05161508173	53.20148849	80.19251251	85.52301025	1.0
11	0.9073413014	0.3861200809	0.03293840215	69.31049347	80.49666595	101.8060837	1.0
12	0.8967866898	0.3845040798	0.01776218228	80.14044189	80.15499878	112.6975403	1.0
[Oberarm_R]
10	1.418636322	-1.210719205e-07	-7.450580597e-08	105.2390594	-58.32584381	-125.6903229	1.0
11	1.418636322	-1.210719205e-07	-7.450580597e-08	106.5561218	-57.81126785	-127.19561	1.0
12	1.418636322	-1.210719205e-07	-7.450580597e-08	106.4242477	-57.795681	-126.8996582	1.0
[Unterarm_R]
10	2.028231859	1.676380634e-07	-3.608874977e-07	-7.170089245	62.18292236	-8.458957672	1.0
11	2.028231859	1.676380634e-07	-3.608874977e-07	-7.004873753	62.38249969	-8.289255142	1.0
12	2.028231859	1.676380634e-07	-3.608874977e-07	-6.707904339	62.73403168	-7.88116169	1.0
[Vorderpfote_R]
10	1.705937624	7.799826562e-08	1.461012289e-07	-5.723708153	6.398198128	4.539602757	1.0
11	1.705937624	7.799826562e-08	1.461012289e-07	-6.716742516	-4.42559433	5.651753902	1.0
12	1.705937624	7.799826562e-08	1.461012289e-07	-7.474327564	-11.01751614	6.505177021	1.0
[Schwanz]
10	-0.1026309952	-1.382431947e-08	0.06696673483	-2.220226997e-05	-119.3542404	2.181978562e-05	1.0
11	-0.09526663274	-1.382431947e-08	0.06363326311	-2.220226997e-05	-120.1826172	2.181978562e-05	1.0
12	-0.09073614329	-1.382431947e-08	0.06029978767	-2.220226997e-05	-120.6918411	2.181978562e-05	1.0
[Schwanz_001]
10	0.9104328156	6.868503988e-08	7.788912626e-08	-2.408194405e-06	15.08832645	-5.75290926e-07	1.0
11	0.9104328156	6.868503988e-08	7.788912626e-08	-2.408194405e-06	16.21727562	-5.75290926e-07	1.0
12	0.9104328156	6.868503988e-08	7.788912626e-08	-2.408194405e-06	16.91099358	-5.75290926e-07	1.0
[Schwanz_002]
10	0.7855660319	5.704351125e-08	-1.185253495e-07	8.174235973e-07	-3.946933985	-1.362372615e-07	1.0
11	0.7855660319	5.704351125e-08	-1.185253495e-07	8.174235973e-07	-3.130063295	-1.362372615e-07	1.0
12	0.7855660319	5.704351125e-08	-1.185253495e-07	8.174235973e-07	-2.627903223	-1.362372615e-07	1.0
[Schwanz_003]
10	0.8350355029	6.286426668e-08	-2.072192729e-07	-2.187832479e-06	-4.440604687	1.867661581e-07	1.0
11	0.8350355029	6.286426668e-08	-2.072192729e-07	-2.187832479e-06	-4.872851849	1.867661581e-07	1.0
12	0.8350355029	6.286426668e-08	-2.072192729e-07	-2.187832479e-06	-5.138654709	1.867661581e-07	1.0
[Oberschenkel_L]
10	0.659478426	-0.5836999416	-0.07633375376	-161.41362	-111.8644104	166.5139465	1.0
11	0.6800572872	-0.5836999416	-0.0971967876	-163.782608	-116.2481689	169.0942841	1.0
12	0.6927179694	-0.5836999416	-0.1100223884	-165.1556244	-120.1543427	170.6579742	1.0
[Unterschenkel_L]
10	1.686439037	6.984918599e-08	-6.053597446e-08	-33.4766922	-67.31281281	41.10717392	1.0
11	1.686439037	6.984918599e-08	-6.053597446e-08	-40.66881561	-70.2209549	48.85962296	1.0
12	1.686439037	6.984918599e-08	-6.053597446e-08	-47.42721558	-71.81427765	56.14643478	1.0
[Pfote1_L]
10	1.190900326	6.519258022e-08	1.396983862e-07	2.269129753	32.15764236	-5.898982048	1.0
11	1.190900326	6.519258022e-08	1.396983862e-07	2.201069355	33.46472549	-6.025127888	1.0
12	1.190900326	6.519258022e-08	1.396983862e-07	2.147910118	34.41674423	-6.120038986	1.0
[Pfote2_L]
10	0.9876257777	7.450580597e-08	-5.587935092e-08	-73.28003693	85.75110626	-78.82137299	1.0
11	0.9876257777	7.450580597e-08	-5.587935092e-08	-82.47907257	85.49111176	-88.27949524	1.0
12	0.9876257777	7.450580597e-08	-5.587935092e-08	-83.43478394	85.16165924	-89.46875	1.0
[Oberschenkel_R]
10	0.6018403769	0.5837000012	0.1034142375	-17.81154823	-66.97810364	12.65563679	1.0
11	0.5815844536	0.5837000012	0.1072569862	-19.09634781	-69.11210632	14.04313278	1.0
12	0.5643607378	0.5837000012	0.1110997424	-20.7169838	-71.17422485	15.76297855	1.0
[Unterschenkel_R]
10	1.68644917	1.164153218e-07	2.793967901e-08	14.69956112	-39.96140671	-23.90682602	1.0
11	1.68644917	1.164153218e-07	2.793967901e-08	13.97648621	-38.63787079	-22.88014221	1.0
12	1.68644917	1.164153218e-07	2.793967901e-08	13.30135822	-37.36506653	-21.8854332	1.0
[Pfote1_R]
10	1.190900087	1.856824383e-07	4.190951941e-08	-2.27716732	34.53517151	5.888200283	1.0
11	1.190900087	1.856824383e-07	4.190951941e-08	-2.259254217	34.14527512	5.919914722	1.0
12	1.190900087	1.856824383e-07	4.190951941e-08	-2.240555048	33.72795486	5.953457355	1.0
[Pfote2_R]
10	0.9876258373	6.984919754e-09	6.635672634e-08	21.75196457	86.01511383	28.21190262	1.0
11	0.9876258373	6.984919754e-09	6.635672634e-08	28.23233414	87.04247284	34.46746063	1.0
12	0.9876258373	6.984919754e-09	6.635672634e-08	45.28576279	87.93803406	51.28620148	1.0
[EndOfFile]
